<svg width="101" height="39" viewBox="0 0 101 39" fill="none" xmlns="http://www.w3.org/2000/svg">
<g filter="url(#filter0_di_234_2)">
<path d="M4.87012 1.69922C6.51074 1.83594 7.94629 1.91797 9.17676 1.94531C10.4346 1.97266 11.501 1.98633 12.376 1.98633C13.3877 1.98633 14.2627 1.95898 15.001 1.9043C15.7666 1.82227 16.7646 1.71289 17.9951 1.57617C19.0342 1.43945 20.374 1.26172 22.0146 1.04297C23.6553 0.796875 25.6514 0.482422 28.0029 0.0996094C27.7021 0.564453 27.4424 1.05664 27.2236 1.57617C27.0322 2.06836 26.8682 2.51953 26.7314 2.92969C26.5947 3.42188 26.4717 3.90039 26.3623 4.36523C26.2803 4.88477 26.1846 5.52734 26.0752 6.29297C25.9658 6.94922 25.8291 7.7832 25.665 8.79492C25.5283 9.7793 25.3506 10.9551 25.1318 12.3223C24.3115 10.1895 23.4775 8.54883 22.6299 7.40039C21.8096 6.25195 21.0439 5.4043 20.333 4.85742C19.5127 4.22852 18.7334 3.87305 17.9951 3.79102C16.9287 3.79102 16.0537 3.99609 15.3701 4.40625C14.6865 4.81641 14.126 5.34961 13.6885 6.00586C13.2783 6.63477 12.9639 7.33203 12.7451 8.09766C12.5264 8.83594 12.376 9.56055 12.2939 10.2715C12.2119 10.9551 12.1572 11.5703 12.1299 12.1172C12.1025 12.6367 12.0752 12.9922 12.0479 13.1836C13.0049 13.1289 13.8115 13.0605 14.4678 12.9785C15.124 12.8965 15.6436 12.8145 16.0264 12.7324C16.4912 12.623 16.8604 12.5137 17.1338 12.4043C17.5439 12.1855 17.9541 11.9258 18.3643 11.625C18.7197 11.3516 19.0889 11.0234 19.4717 10.6406C19.8818 10.2578 20.2373 9.79297 20.5381 9.24609C20.374 10.2305 20.2236 11.0508 20.0869 11.707C19.9775 12.3633 19.8818 12.8828 19.7998 13.2656C19.6904 13.7305 19.6221 14.0859 19.5947 14.332C19.54 14.5781 19.4717 14.9199 19.3896 15.3574C19.3076 15.7402 19.2119 16.2324 19.1025 16.834C18.9932 17.4355 18.8701 18.1875 18.7334 19.0898C18.4053 18.5156 18.0635 18.0508 17.708 17.6953C17.3525 17.3125 17.0244 17.0117 16.7236 16.793C16.3682 16.5469 16.0264 16.3555 15.6982 16.2188C15.3428 16.1094 14.96 16 14.5498 15.8906C14.1943 15.8086 13.7705 15.7266 13.2783 15.6445C12.8135 15.5352 12.3076 15.4395 11.7607 15.3574C11.8154 16.834 11.8975 18.1055 12.0068 19.1719C12.1162 20.2109 12.2119 21.0859 12.2939 21.7969C12.4033 22.6172 12.5127 23.3008 12.6221 23.8477C12.7588 24.3945 12.9775 24.9824 13.2783 25.6113C13.5244 26.1582 13.8662 26.7871 14.3037 27.498C14.7686 28.1816 15.3564 28.9199 16.0674 29.7129C15.5205 29.5762 14.9463 29.4805 14.3447 29.4258C13.7432 29.3711 13.21 29.3301 12.7451 29.3027C12.1709 29.2754 11.624 29.2754 11.1045 29.3027C10.5576 29.3301 9.95605 29.3848 9.2998 29.4668C8.75293 29.5215 8.12402 29.6035 7.41309 29.7129C6.70215 29.8223 5.9502 29.9453 5.15723 30.082C5.62207 29.6172 6.00488 29.1523 6.30566 28.6875C6.60645 28.2227 6.8252 27.8125 6.96191 27.457C7.12598 27.0469 7.23535 26.6504 7.29004 26.2676C7.31738 25.9395 7.33105 25.2285 7.33105 24.1348C7.33105 23.0137 7.31738 21.7148 7.29004 20.2383C7.2627 18.7344 7.22168 17.1484 7.16699 15.4805C7.1123 13.8125 7.05762 12.2539 7.00293 10.8047C6.94824 9.32812 6.87988 8.07031 6.79785 7.03125C6.74316 5.99219 6.6748 5.36328 6.59277 5.14453C6.4834 4.87109 6.36035 4.55664 6.22363 4.20117C6.00488 3.62695 5.55371 2.79297 4.87012 1.69922ZM29.8486 2.23242C31.2158 2.31445 32.3643 2.38281 33.2939 2.4375C34.251 2.46484 35.0439 2.49219 35.6729 2.51953C36.3838 2.54687 36.9854 2.54687 37.4775 2.51953C37.9697 2.49219 38.6396 2.42383 39.4873 2.31445C40.1982 2.23242 41.1416 2.10938 42.3174 1.94531C43.5205 1.75391 45.0107 1.50781 46.7881 1.20703C46.1592 1.83594 45.667 2.41016 45.3115 2.92969C44.9834 3.42188 44.7236 3.8457 44.5322 4.20117C44.3135 4.63867 44.1631 5.00781 44.0811 5.30859C44.0264 5.58203 44.0811 6.26562 44.2451 7.35938C44.4092 8.45312 44.6416 9.75195 44.9424 11.2559C45.2432 12.7324 45.5713 14.3184 45.9268 16.0137C46.2822 17.6816 46.6377 19.2539 46.9932 20.7305C47.3486 22.1797 47.6631 23.4238 47.9365 24.4629C48.2373 25.4746 48.4561 26.0762 48.5928 26.2676C49.0029 26.8418 49.2627 27.2246 49.3721 27.416C49.4814 27.5801 49.6729 27.7305 49.9463 27.8672C50.0557 27.9219 50.2334 28.0039 50.4795 28.1133C50.6982 28.2227 50.9854 28.3594 51.3408 28.5234C51.7236 28.6875 52.2021 28.8789 52.7764 29.0977C51.71 29.1523 50.7939 29.1934 50.0283 29.2207C49.2627 29.2207 48.6338 29.2344 48.1416 29.2617C47.5674 29.2891 47.0752 29.3164 46.665 29.3438C46.2549 29.3438 45.7627 29.3711 45.1885 29.4258C44.6963 29.4805 44.0537 29.5352 43.2607 29.5898C42.4951 29.6445 41.5928 29.6992 40.5537 29.7539C41.1006 29.3711 41.5381 29.0293 41.8662 28.7285C42.2217 28.4004 42.4951 28.127 42.6865 27.9082C42.9053 27.6348 43.0557 27.3887 43.1377 27.1699C43.1924 26.9238 43.2334 26.5547 43.2607 26.0625C43.2881 25.625 43.2881 25.0508 43.2607 24.3398C43.2334 23.6016 43.165 22.6445 43.0557 21.4688L32.2686 22.5762C31.9951 23.041 31.79 23.4512 31.6533 23.8066C31.5166 24.1348 31.4209 24.4219 31.3662 24.668C31.2842 24.9688 31.2568 25.2148 31.2842 25.4062C31.3389 25.625 31.4346 25.8848 31.5713 26.1855C31.708 26.459 31.8994 26.7871 32.1455 27.1699C32.4189 27.5254 32.8154 27.9492 33.335 28.4414C32.6514 28.4141 31.9541 28.4004 31.2432 28.4004C30.5322 28.4004 29.876 28.4141 29.2744 28.4414C28.5635 28.4688 27.8662 28.4961 27.1826 28.5234C26.499 28.5508 25.7197 28.5918 24.8447 28.6465C24.1064 28.7012 23.2451 28.7695 22.2607 28.8516C21.249 28.9062 20.1689 28.9883 19.0205 29.0977C19.7314 28.7695 20.333 28.4414 20.8252 28.1133C21.3174 27.7578 21.7275 27.4297 22.0557 27.1289C22.4385 26.8008 22.7666 26.4863 23.04 26.1855C23.2314 25.9121 23.6143 25.2832 24.1885 24.2988C24.7627 23.2871 25.4053 22.0977 26.1162 20.7305C26.8545 19.3633 27.6201 17.9004 28.4131 16.3418C29.2334 14.7832 29.9717 13.3203 30.6279 11.9531C31.2842 10.5586 31.8174 9.35547 32.2275 8.34375C32.6377 7.33203 32.8428 6.67578 32.8428 6.375C32.7881 6.01953 32.6514 5.62305 32.4326 5.18555C32.2412 4.80273 31.9404 4.36523 31.5303 3.87305C31.1475 3.38086 30.5869 2.83398 29.8486 2.23242ZM42.5635 18.4336C42.3994 17.4766 42.249 16.6562 42.1123 15.9727C41.9756 15.2617 41.8662 14.6738 41.7842 14.209C41.6748 13.6621 41.5928 13.1836 41.5381 12.7734C41.4561 12.3906 41.3604 11.8984 41.251 11.2969C41.1416 10.7773 41.0049 10.1348 40.8408 9.36914C40.7041 8.57617 40.5264 7.63281 40.3076 6.53906C38.749 9.65625 37.5322 12.0762 36.6572 13.7988C35.8096 15.4941 35.1943 16.7383 34.8115 17.5312C34.3467 18.4609 34.0869 19.0078 34.0322 19.1719L42.5635 18.4336ZM50.4385 0.591797C51.3135 0.619141 52.0791 0.632812 52.7354 0.632812C53.3916 0.605469 53.9248 0.591797 54.335 0.591797H55.5244C55.8252 0.564453 56.1943 0.550781 56.6318 0.550781C57.0146 0.550781 57.4795 0.550781 58.0264 0.550781C58.5732 0.550781 59.2021 0.564453 59.9131 0.591797C60.1318 1.35742 60.3779 2.10938 60.6514 2.84766C60.9521 3.55859 61.2119 4.20117 61.4307 4.77539C61.7041 5.45898 61.9775 6.10156 62.251 6.70312C62.5244 7.30469 62.8525 8.0293 63.2354 8.87695C63.5635 9.58789 63.96 10.4629 64.4248 11.502C64.8896 12.5137 65.4365 13.6758 66.0654 14.9883C66.3662 14.1406 66.6396 13.3613 66.8857 12.6504C67.1592 11.9395 67.3916 11.3242 67.583 10.8047C67.8018 10.2031 67.9795 9.65625 68.1162 9.16406C68.2529 8.67188 68.4033 8.07031 68.5674 7.35938C68.7041 6.75781 68.8545 6.0332 69.0186 5.18555C69.21 4.33789 69.4014 3.35352 69.5928 2.23242C70.3857 2.23242 71.0967 2.23242 71.7256 2.23242C72.3545 2.23242 72.9014 2.21875 73.3662 2.19141C73.8857 2.19141 74.3506 2.17773 74.7607 2.15039C75.1982 2.15039 75.7861 2.12305 76.5244 2.06836C77.1533 2.01367 77.9873 1.97266 79.0264 1.94531C80.0928 1.89062 81.4053 1.82227 82.9639 1.74023C82.3896 2.15039 81.9248 2.56055 81.5693 2.9707C81.2412 3.35352 80.9814 3.69531 80.79 3.99609C80.5713 4.35156 80.4346 4.69336 80.3799 5.02148C80.3252 5.29492 80.2705 5.92383 80.2158 6.9082C80.1885 7.89258 80.1475 9.06836 80.0928 10.4355C80.0654 11.7754 80.0381 13.2109 80.0107 14.7422C80.0107 16.2734 80.0244 17.7227 80.0518 19.0898C80.0791 20.457 80.1201 21.6465 80.1748 22.6582C80.2568 23.6426 80.3662 24.2715 80.5029 24.5449C80.6943 24.873 80.9541 25.2559 81.2822 25.6934C81.583 26.0762 81.9658 26.5137 82.4307 27.0059C82.9229 27.498 83.5654 28.0449 84.3584 28.6465C83.1006 28.7012 82.0479 28.7422 81.2002 28.7695C80.3799 28.7969 79.6963 28.8242 79.1494 28.8516C78.5205 28.8789 78.0146 28.8926 77.6318 28.8926C77.2217 28.8926 76.6611 28.9062 75.9502 28.9336C75.3213 28.9609 74.4873 29.002 73.4482 29.0566C72.4092 29.084 71.0693 29.1387 69.4287 29.2207C69.8115 28.7832 70.167 28.3457 70.4951 27.9082C70.8232 27.4707 71.0967 27.0742 71.3154 26.7188C71.5889 26.3086 71.8213 25.9121 72.0127 25.5293C72.2041 25.0098 72.3545 24.0664 72.4639 22.6992C72.5732 21.5234 72.6553 19.8418 72.71 17.6543C72.7646 15.4395 72.7646 12.4727 72.71 8.75391C72.1904 9.60156 71.7256 10.4492 71.3154 11.2969C70.9326 12.1172 70.5908 12.8691 70.29 13.5527C69.9619 14.3457 69.6611 15.1113 69.3877 15.8496C69.1143 16.6152 68.8271 17.4629 68.5264 18.3926C68.2529 19.1855 67.9248 20.1289 67.542 21.2227C67.1865 22.3164 66.7764 23.5195 66.3115 24.832L64.7529 24.9141C64.5342 23.8203 64.3154 22.8359 64.0967 21.9609C63.8779 21.0586 63.6592 20.293 63.4404 19.6641C63.1943 18.9258 62.9482 18.2695 62.7021 17.6953C62.4287 17.1211 62.1279 16.4785 61.7998 15.7676C61.499 15.166 61.1299 14.4551 60.6924 13.6348C60.2822 12.8145 59.8037 11.8984 59.2568 10.8867C58.9834 13.6758 58.8193 15.9453 58.7646 17.6953C58.71 19.418 58.71 20.7578 58.7646 21.7148C58.8193 22.8633 58.9014 23.6973 59.0107 24.2168C59.1748 24.6816 59.4346 25.2012 59.79 25.7754C60.0908 26.2676 60.501 26.8555 61.0205 27.5391C61.5674 28.1953 62.2646 28.9336 63.1123 29.7539C62.5107 29.7539 61.8818 29.7539 61.2256 29.7539C60.5693 29.7539 59.9678 29.7676 59.4209 29.7949C58.7646 29.8223 58.1221 29.8359 57.4932 29.8359C56.8369 29.8633 56.0713 29.9043 55.1963 29.959C54.4307 30.0137 53.5146 30.0684 52.4482 30.123C51.3818 30.1777 50.1514 30.2734 48.7568 30.4102C49.3584 30.0273 49.8506 29.6582 50.2334 29.3027C50.6162 28.9199 50.917 28.5781 51.1357 28.2773C51.4092 27.9219 51.6143 27.5664 51.751 27.2109C51.833 26.9922 51.9014 26.5137 51.9561 25.7754C52.0381 25.0371 52.1064 24.1348 52.1611 23.0684C52.2432 22.002 52.2979 20.8125 52.3252 19.5C52.3799 18.1875 52.4209 16.8613 52.4482 15.5215C52.5029 14.1543 52.5439 12.8281 52.5713 11.543C52.5986 10.2305 52.6123 9.05469 52.6123 8.01562C52.6396 6.94922 52.6533 6.06055 52.6533 5.34961C52.6533 4.63867 52.6533 4.1875 52.6533 3.99609C52.5713 3.58594 52.4482 3.17578 52.2842 2.76562C52.1475 2.41016 51.9287 2.04102 51.6279 1.6582C51.3271 1.27539 50.9307 0.919922 50.4385 0.591797ZM84.1533 1.74023C85.083 1.84961 85.8623 1.93164 86.4912 1.98633C87.1475 2.01367 87.6807 2.05469 88.0908 2.10938C88.583 2.16406 88.9658 2.19141 89.2393 2.19141C89.54 2.21875 89.9912 2.20508 90.5928 2.15039C91.1123 2.0957 91.8096 2.02734 92.6846 1.94531C93.5869 1.86328 94.7354 1.74023 96.1299 1.57617C95.501 2.12305 94.9951 2.65625 94.6123 3.17578C94.2568 3.66797 93.9834 4.10547 93.792 4.48828C93.5459 4.95313 93.3955 5.39062 93.3408 5.80078C93.2314 6.45703 93.1357 7.35938 93.0537 8.50781C92.999 9.62891 92.9443 10.8594 92.8896 12.1992C92.835 13.5391 92.8076 14.9199 92.8076 16.3418C92.8076 17.7637 92.8213 19.1172 92.8486 20.4023C92.9033 21.6602 92.9854 22.7812 93.0947 23.7656C93.2314 24.75 93.3955 25.4609 93.5869 25.8984C93.8604 26.3906 94.1475 26.8828 94.4482 27.375C94.7217 27.7852 95.0498 28.209 95.4326 28.6465C95.8154 29.084 96.2529 29.4395 96.7451 29.7129C95.1318 29.6309 93.8467 29.5898 92.8896 29.5898H91.4131C90.9756 29.5898 90.415 29.6172 89.7314 29.6719C89.1572 29.7266 88.4326 29.7812 87.5576 29.8359C86.6826 29.8906 85.6299 29.9727 84.3994 30.082C85.0283 29.3984 85.5205 28.7422 85.876 28.1133C86.2314 27.4844 86.5186 26.9375 86.7373 26.4727C86.9834 25.9258 87.1475 25.4062 87.2295 24.9141C87.3389 24.2031 87.4209 23.3281 87.4756 22.2891C87.5576 21.2227 87.6123 20.0879 87.6396 18.8848C87.667 17.6543 87.667 16.4102 87.6396 15.1523C87.6396 13.8672 87.6123 12.6367 87.5576 11.4609C87.5029 10.2852 87.4209 9.21875 87.3115 8.26172C87.2295 7.30469 87.1201 6.53906 86.9834 5.96484C86.9014 5.60938 86.7373 5.21289 86.4912 4.77539C86.2725 4.39258 85.9717 3.95508 85.5889 3.46289C85.2334 2.94336 84.7549 2.36914 84.1533 1.74023Z" fill="#153AFF"/>
</g>
<defs>
<filter id="filter0_di_234_2" x="0.870117" y="0.0996094" width="99.875" height="38.3105" filterUnits="userSpaceOnUse" color-interpolation-filters="sRGB">
<feFlood flood-opacity="0" result="BackgroundImageFix"/>
<feColorMatrix in="SourceAlpha" type="matrix" values="0 0 0 0 0 0 0 0 0 0 0 0 0 0 0 0 0 0 127 0" result="hardAlpha"/>
<feOffset dy="4"/>
<feGaussianBlur stdDeviation="2"/>
<feComposite in2="hardAlpha" operator="out"/>
<feColorMatrix type="matrix" values="0 0 0 0 0 0 0 0 0 0 0 0 0 0 0 0 0 0 0.25 0"/>
<feBlend mode="normal" in2="BackgroundImageFix" result="effect1_dropShadow_234_2"/>
<feBlend mode="normal" in="SourceGraphic" in2="effect1_dropShadow_234_2" result="shape"/>
<feColorMatrix in="SourceAlpha" type="matrix" values="0 0 0 0 0 0 0 0 0 0 0 0 0 0 0 0 0 0 127 0" result="hardAlpha"/>
<feOffset dy="4"/>
<feGaussianBlur stdDeviation="2"/>
<feComposite in2="hardAlpha" operator="arithmetic" k2="-1" k3="1"/>
<feColorMatrix type="matrix" values="0 0 0 0 0 0 0 0 0 0 0 0 0 0 0 0 0 0 0.25 0"/>
<feBlend mode="normal" in2="shape" result="effect2_innerShadow_234_2"/>
</filter>
</defs>
</svg>
